<svg width="32" height="33" viewBox="0 0 32 33" fill="none" xmlns="http://www.w3.org/2000/svg">
<path d="M7.98297 11.1514H1.96043C1.69314 11.1514 1.47656 11.368 1.47656 11.6352V30.9831C1.47656 31.2504 1.69314 31.467 1.96043 31.467H7.98297C8.25026 31.467 8.46684 31.2504 8.46684 30.9831V11.6352C8.46684 11.368 8.25026 11.1514 7.98297 11.1514Z" stroke="black" stroke-width="2"/>
<path d="M4.97412 1.53296C2.78277 1.53296 1 3.3138 1 5.50273C1 7.69263 2.78277 9.47414 4.97412 9.47414C7.16373 9.47414 8.94506 7.69253 8.94506 5.50273C8.94515 3.3138 7.16373 1.53296 4.97412 1.53296Z" stroke="black" stroke-width="2"/>
<path d="M23.3023 10.6704C20.8834 10.6704 19.0953 11.7102 18.0108 12.8918V11.6352C18.0108 11.368 17.7942 11.1513 17.5269 11.1513H11.7593C11.492 11.1513 11.2754 11.368 11.2754 11.6352V30.983C11.2754 31.2503 11.492 31.4669 11.7593 31.4669H17.7686C18.0359 31.4669 18.2525 31.2503 18.2525 30.983V21.4103C18.2525 18.1845 19.1287 16.9278 21.3773 16.9278C23.8263 16.9278 24.0209 18.9425 24.0209 21.5763V30.9831C24.0209 31.2504 24.2375 31.467 24.5048 31.467H30.5164C30.7837 31.467 31.0003 31.2504 31.0003 30.9831V20.3705C31.0003 15.5739 30.0857 10.6704 23.3023 10.6704Z" stroke="black" stroke-width="2"/>
</svg>
