<svg xmlns="http://www.w3.org/2000/svg" width="183.791" height="187.801" viewBox="0 0 183.791 187.801">
  <g id="Layer_8" data-name="Layer 8" transform="translate(-1078 -86)">
    <rect id="Rectangle_7" data-name="Rectangle 7" width="18" height="141" transform="translate(1078 86)"/>
    <path id="Path_62" data-name="Path 62" d="M1121,179"/>
    <path id="Path_63" data-name="Path 63" d="M1212,267.216V220.784L1164,223h0l-1,4.026c21.047-1.886,43.641,11.249,49,40.19"/>
    <line id="Line_1" data-name="Line 1" y2="94" transform="translate(1212 175)" stroke="#000" stroke-miterlimit="10" stroke-width="0.25"/>
    <g id="Group_12" data-name="Group 12">
      <path id="Path_64" data-name="Path 64" d="M1162.321,222.9s.058,0,.163,0Z"/>
      <path id="Path_65" data-name="Path 65" d="M1261.791,222.9c-3.429-.026-49.63-1.3-49.63-50.9-.206,49.807-46.607,50.884-49.677,50.9,3.078.017,49.677,1.091,49.677,50.9C1212.161,224.005,1258.362,222.912,1261.791,222.9Z"/>
    </g>
    <path id="Path_66" data-name="Path 66" d="M1217.7,197.857c-3.408-6.718-5.537-15.066-5.537-25.857,0,49.882-46.645,50.9-49.627,50.9a58.712,58.712,0,0,1,23,5.294C1197.038,224.936,1211.735,217,1217.7,197.857Z"/>
    <g id="Group_13" data-name="Group 13">
      <path id="Path_67" data-name="Path 67" d="M1165.752,129.007,1166,129c-.1,0-.193.006-.289.005Z"/>
      <path id="Path_68" data-name="Path 68" d="M1164.15,129.035c-.1,0-.2,0-.3.008C1163.948,129.039,1164.049,129.038,1164.15,129.035Z"/>
      <path id="Path_69" data-name="Path 69" d="M1212,178.131a52.906,52.906,0,0,1-8.963,23.238,43.293,43.293,0,0,1-29.074,19.159,42.207,42.207,0,0,1-7.463.672c-.143,0-.283-.013-.426-.015-.192,0-.381.015-.574.015a44.694,44.694,0,0,1-37.661-20.878c-.29-.434-.571-.875-.839-1.322-3.023-4.9-4.215-7.914-4.912-11.762A47.274,47.274,0,0,1,1120.68,179H1097c9.622,28,23.162,47.769,46,48h52.333q-7.206-.7-14-1.568H1212Z"/>
    </g>
    <path id="Path_70" data-name="Path 70" d="M1128.383,198.976"/>
    <path id="Path_71" data-name="Path 71" d="M1115,212"/>
    <path id="Path_72" data-name="Path 72" d="M1121,179"/>
    <path id="Path_87" data-name="Path 87" d="M334.583,179.592l40.449-46.743,21.746.012L358.206,179.09Z" transform="matrix(1, 0.017, -0.017, 1, 765.602, -6.218)"/>
  </g>
</svg>
