<svg width="35" height="35" viewBox="0 0 35 35" fill="none" xmlns="http://www.w3.org/2000/svg">
<g clip-path="url(#clip0_1200_11308)">
<path d="M3.28127 4.375H31.7187C33.5281 4.375 35 5.84687 35 7.65627V27.3438C35 29.1532 33.5281 30.625 31.7187 30.625H3.28127C1.47187 30.625 0 29.1532 0 27.3438V7.65627C0 5.84687 1.47187 4.375 3.28127 4.375ZM3.28127 6.56249C3.13267 6.56249 2.9913 6.59332 2.86206 6.64717L17.5 19.334L32.138 6.64717C32.0088 6.5934 31.8674 6.56249 31.7188 6.56249H3.28127ZM3.28127 28.4375H31.7187C32.3222 28.4375 32.8125 27.9472 32.8125 27.3437V8.95828L18.2167 21.608C18.0105 21.7863 17.7553 21.875 17.5 21.875C17.2447 21.875 16.9895 21.7864 16.7833 21.608L2.18749 8.95828V27.3438C2.18756 27.9472 2.6778 28.4375 3.28127 28.4375Z" fill="black"/>
</g>
<defs>
<clipPath id="clip0_1200_11308">
<rect width="35" height="35" fill="white" transform="matrix(-1 0 0 1 35 0)"/>
</clipPath>
</defs>
</svg>
