<?xml version="1.0" encoding="utf-8"?>
<!-- Generator: Adobe Illustrator 22.1.0, SVG Export Plug-In . SVG Version: 6.00 Build 0)  -->
<svg version="1.1" id="Capa_1" xmlns="http://www.w3.org/2000/svg" xmlns:xlink="http://www.w3.org/1999/xlink" x="0px" y="0px"
	 viewBox="0 0 512 512" style="enable-background:new 0 0 512 512;" xml:space="preserve">
<style type="text/css">
	.st0{fill:#FAB5BE;}
</style>
<g>
	<path class="st0" d="M505,239.2L352.7,86.8c-9.3-9.3-24.4-9.3-33.7,0c-9.3,9.3-9.3,24.4,0,33.7l111.7,111.7H23.8
		C10.7,232.2,0,242.9,0,256c0,13.1,10.7,23.8,23.8,23.8h406.9L319,391.5c-9.3,9.3-9.3,24.4,0,33.7c4.6,4.6,10.7,7,16.8,7
		c6.1,0,12.2-2.3,16.8-7L505,272.8C514.3,263.5,514.3,248.5,505,239.2z"/>
</g>
</svg>
