<svg width="22" height="22" viewBox="0 0 22 22" fill="none" xmlns="http://www.w3.org/2000/svg">
<path d="M20.4084 11.983C20.9018 11.983 21.3247 11.56 21.3247 10.9961C21.3247 10.5027 20.9018 10.0798 20.4084 10.0798C19.5625 10.0798 11.9498 9.79785 11.9498 0.916345C11.9498 0.422929 11.5269 0 11.0335 0C10.54 0 10.1171 0.422929 10.1171 0.916345C10.1171 9.79785 2.50439 10.0798 1.65853 10.0798C1.58804 10.0798 1.58804 10.0798 1.58804 10.0798C1.09463 10.1503 0.742188 10.5027 0.742188 10.9961C0.742188 11.4896 1.16512 11.9125 1.65853 11.9125C2.57488 11.9125 10.1171 12.1944 10.1171 21.0759C10.1171 21.5694 10.54 21.9923 11.0335 21.9923C11.4564 22.0628 11.8793 21.6398 11.8793 21.1464C11.8793 12.2649 19.492 11.983 20.3379 11.983H20.4084ZM10.963 16.0008C9.83515 13.3223 7.791 11.842 5.88782 10.9961C7.93197 10.1503 9.83515 8.52906 10.963 5.99149C12.0908 8.67004 14.1349 10.1503 16.0381 10.9961C13.994 11.842 12.0908 13.4632 10.963 16.0008Z" fill="#2340A2"/>
</svg>
